<svg version="1.1" id="Layer_1" xmlns="http://www.w3.org/2000/svg" xmlns:xlink="http://www.w3.org/1999/xlink" x="0px" y="0px"
	 width="100%" viewBox="0 0 322 372" enable-background="new 0 0 322 372" xml:space="preserve">
<path fill="#FEFFFF" opacity="1.000000" stroke="none" 
	d="
M215.000000,373.000000 
	C143.333344,373.000000 72.166695,373.000000 1.000029,373.000000 
	C1.000019,249.000031 1.000019,125.000069 1.000010,1.000079 
	C108.333282,1.000052 215.666565,1.000052 322.999878,1.000026 
	C322.999939,124.999916 322.999939,248.999832 322.999969,372.999878 
	C287.166656,373.000000 251.333328,373.000000 215.000000,373.000000 
M280.988159,353.616608 
	C287.112305,350.681366 293.570648,348.274536 299.271393,344.669739 
	C305.612152,340.660217 309.100067,334.393524 309.224365,326.604797 
	C309.511627,308.605286 307.005341,291.048889 300.430939,274.230865 
	C284.954041,234.639404 254.018356,212.523422 215.259872,199.417542 
	C213.921387,198.964951 211.948425,199.331863 210.635254,200.015808 
	C178.264053,216.875702 145.922729,216.927475 113.489250,200.189926 
	C112.037239,199.440598 109.883286,198.997147 108.416000,199.487534 
	C79.660439,209.098007 54.489994,224.001556 36.639660,249.296936 
	C21.543024,270.690033 15.603912,294.888092 14.435925,320.750610 
	C13.851681,333.687408 18.812653,342.620483 30.062525,348.323334 
	C33.756107,350.195740 37.625961,351.812225 41.560902,353.100861 
	C58.954288,358.796875 77.029335,360.637604 95.141632,361.881927 
	C134.748764,364.602875 174.403336,364.594330 214.041855,362.782806 
	C236.335281,361.764008 258.601837,360.069550 280.988159,353.616608 
M242.204498,146.678925 
	C253.010956,119.729523 253.592514,92.457382 243.852478,65.208534 
	C231.258606,29.975775 200.734390,7.713740 165.002991,7.005675 
	C126.749107,6.247624 95.879303,26.149752 81.460487,61.294804 
	C71.923584,84.540459 70.693863,108.490166 76.921799,132.784576 
	C87.103249,172.501175 116.448090,197.775757 157.184464,200.467361 
	C193.126663,202.842194 225.945770,184.266251 242.204498,146.678925 
z"/>
<path fill="#0180FF" opacity="1.000000" stroke="none" 
	d="
M280.607178,353.739868 
	C258.601837,360.069550 236.335281,361.764008 214.041855,362.782806 
	C174.403336,364.594330 134.748764,364.602875 95.141632,361.881927 
	C77.029335,360.637604 58.954288,358.796875 41.560902,353.100861 
	C37.625961,351.812225 33.756107,350.195740 30.062525,348.323334 
	C18.812653,342.620483 13.851681,333.687408 14.435925,320.750610 
	C15.603912,294.888092 21.543024,270.690033 36.639660,249.296936 
	C54.489994,224.001556 79.660439,209.098007 108.416000,199.487534 
	C109.883286,198.997147 112.037239,199.440598 113.489250,200.189926 
	C145.922729,216.927475 178.264053,216.875702 210.635254,200.015808 
	C211.948425,199.331863 213.921387,198.964951 215.259872,199.417542 
	C254.018356,212.523422 284.954041,234.639404 300.430939,274.230865 
	C307.005341,291.048889 309.511627,308.605286 309.224365,326.604797 
	C309.100067,334.393524 305.612152,340.660217 299.271393,344.669739 
	C293.570648,348.274536 287.112305,350.681366 280.607178,353.739868 
z"/>
<path fill="#0180FF" opacity="1.000000" stroke="none" 
	d="
M242.074814,147.037292 
	C225.945770,184.266251 193.126663,202.842194 157.184464,200.467361 
	C116.448090,197.775757 87.103249,172.501175 76.921799,132.784576 
	C70.693863,108.490166 71.923584,84.540459 81.460487,61.294804 
	C95.879303,26.149752 126.749107,6.247624 165.002991,7.005675 
	C200.734390,7.713740 231.258606,29.975775 243.852478,65.208534 
	C253.592514,92.457382 253.010956,119.729523 242.074814,147.037292 
z"/>
</svg>